<svg xmlns="http://www.w3.org/2000/svg" xmlns:xlink="http://www.w3.org/1999/xlink" version="1.1" x="0px" y="0px" viewBox="0 0 128 160" style="enable-background:new 0 0 128 128;" xml:space="preserve"><g><polygon points="94.293,73.818 94.294,73.818 94.294,73.818  "/><path d="M82.885,80.935c0.874,0.713,1.994,1.07,3.115,1.07s2.241-0.356,3.115-1.07l5.179-4.231C94.742,76.337,95,75.811,95,75.261   c0-0.55-0.258-1.076-0.706-1.442c-4.574-3.737-12.015-3.736-16.587,0C77.258,74.185,77,74.71,77,75.261s0.258,1.076,0.706,1.442   L82.885,80.935z M92.897,75.262l-5.048,4.124c-1.001,0.819-2.695,0.819-3.698,0l-5.048-4.124   C82.945,72.235,89.056,72.235,92.897,75.262z"/><path d="M69,35c-6.065,0-11,4.935-11,11s4.935,11,11,11s11-4.935,11-11S75.065,35,69,35z M69,37c4.624,0,8.441,3.507,8.941,8   H60.059C60.559,40.507,64.376,37,69,37z M72.816,47c-0.414,1.161-1.514,2-2.816,2s-2.402-0.839-2.816-2H72.816z M69,55   c-4.624,0-8.441-3.507-8.941-8h5.042c0.465,2.279,2.484,4,4.899,4s4.434-1.721,4.899-4h3.042C77.441,51.493,73.624,55,69,55z"/><path d="M125.021,5.604C124.009,3.212,122.577,2,120.764,2c-7.549,0-19.225,13.772-23.938,19.754   C93.51,20.664,89.937,20.037,86.23,20h-0.47c-3.703,0.037-7.273,0.663-10.587,1.752C70.459,15.77,58.785,2,51.236,2   c-1.812,0-3.245,1.212-4.257,3.604c-2.247,5.308-2.182,15.818-1.731,23.7c0.307,5.369,1.328,16.327,2.298,17.328   c0.148,0.153,0.342,0.379,0.577,0.65c0.447,0.518,1.034,1.19,1.712,1.866C48.65,52.281,48,55.812,48,59.5   c0,0.733,0.034,1.459,0.085,2.181c-11.048,9.869-20.609,25.371-29.113,47.208C17.398,108.31,15.733,108,14,108   c-7.168,0-13,5.159-13,11.567C1.023,123.114,4.013,126,7.665,126h15.507h1.058h61.643c0.222,0,0.437-0.074,0.612-0.209   c0.939-0.727,1.853-1.491,2.751-2.277c0.171,0.693,0.431,1.369,0.791,2.02c0.176,0.318,0.511,0.516,0.875,0.516h20.196   c0.364,0,0.699-0.198,0.875-0.516c0.681-1.231,1.027-2.548,1.027-3.913c0-3.127-1.866-5.992-5-7.801v-19.57   c1.471-4.782,2.458-9.89,2.915-15.055c0.443,0.445,0.957,1.051,1.065,1.183c0.174,0.259,0.459,0.422,0.771,0.44   c0.309,0.025,0.614-0.109,0.817-0.346c0.118-0.137,0.556-0.763,0.675-0.95c2.369-3.575,3.697-8.078,3.754-12.71   C118.638,68.002,119,69.462,119,71c0,0.434-0.026,0.846-0.081,1.259c-0.063,0.479,0.224,0.935,0.684,1.083   c0.458,0.147,0.959-0.053,1.188-0.478C122.89,68.958,124,64.336,124,59.5c0-3.688-0.65-7.219-1.835-10.353   c0.678-0.676,1.265-1.348,1.712-1.866c0.235-0.271,0.429-0.498,0.577-0.65c0.971-1.001,1.992-11.959,2.299-17.328   C127.203,21.421,127.268,10.911,125.021,5.604z M49.636,45.974c-0.213-0.247-0.397-0.459-0.548-0.623   c-0.923-2.608-4.356-32.97,0.335-40.124C50.228,4,50.987,4,51.236,4c6.612,0,17.953,13.449,21.951,18.466   c-0.54,0.216-1.07,0.447-1.593,0.689C67.622,18.128,60.437,10,55.49,10c-0.931,0-2.231,0.452-3.143,2.602   c-2.696,6.361-0.657,26.593,0.444,27.731c0.096,0.099,0.222,0.246,0.374,0.421c0.269,0.311,0.632,0.725,1.048,1.149   c-1.384,1.498-2.567,3.274-3.519,5.256C50.293,46.729,49.931,46.315,49.636,45.974z M55.643,40.507   c-0.37-0.376-0.701-0.755-0.965-1.06c-0.123-0.142-0.231-0.267-0.324-0.37c-0.737-2.337-2.8-22.022,0.242-26.46   C55.018,12,55.361,12,55.49,12c3.433,0,9.539,6.136,14.279,12.076c-6.484,3.511-11.336,9.031-13.077,15.592   C56.332,39.931,55.984,40.212,55.643,40.507z M48.363,64.151c0.48,3.125,1.433,6.083,2.846,8.713   c0.229,0.425,0.728,0.625,1.188,0.478c0.46-0.148,0.748-0.604,0.684-1.083C53.026,71.846,53,71.434,53,71   c0-1.538,0.362-2.998,1.002-4.188c0.057,4.633,1.385,9.135,3.744,12.695c0.129,0.203,0.568,0.828,0.686,0.965   c0.195,0.226,0.473,0.373,0.783,0.343c0.298-0.006,0.582-0.15,0.767-0.384c0.177-0.224,1.001-1.193,1.465-1.574   c0.021-0.014,0.041-0.028,0.061-0.042c1.143-0.873,2.507-1.334,3.943-1.334c1.839,0,3.605,0.793,4.883,2.217   c0.062,0.062,0.119,0.124,0.169,0.192c0.012,0.017,0.077,0.093,0.09,0.109c0.022,0.038,0.046,0.075,0.073,0.11   c1.519,1.985,3.643,3.667,6.14,4.863C79.558,86.298,82.737,87,86,87s6.442-0.702,9.191-2.028c2.5-1.197,4.625-2.879,6.185-4.924   c0.056-0.079,0.222-0.279,0.329-0.391c1.24-1.384,3.006-2.177,4.845-2.177c0.726,0,1.432,0.119,2.102,0.349   c0.05,0.176,0.102,0.351,0.151,0.528c-0.02,0.229-0.043,0.459-0.066,0.688l-0.029,0.291c-6.184,14.419-18.344,23.866-31.767,24.666   C76.412,104.033,76,104.471,76,105v7.869c-1.56-0.568-3.261-0.869-5-0.869c-1.786,0-3.476,0.322-5,0.883V103   c0-0.438-0.284-0.824-0.702-0.955c-12.191-3.805-21.894-14.091-26.055-27.561C42.167,70.539,45.205,67.104,48.363,64.151z    M68.476,71.682c0-7.82,5.767-14.575,13.711-16.063c0.475-0.089,0.818-0.504,0.816-0.987L83,54c0-13.185,1.875-20.98,3-21.951   c1.125,0.971,3,8.766,3,21.951l-0.003,0.632c-0.002,0.483,0.341,0.898,0.816,0.987c7.945,1.488,13.711,8.243,13.711,16.063   c0,1.581-0.252,3.155-0.728,4.687c-0.957,0.472-1.827,1.113-2.544,1.913c-0.088,0.087-0.375,0.416-0.523,0.63   c-1.327,1.727-3.194,3.198-5.405,4.256C91.842,84.367,88.963,85,86,85s-5.842-0.633-8.328-1.832   c-2.201-1.054-4.064-2.519-5.39-4.239c-0.057-0.087-0.121-0.168-0.164-0.218c-0.11-0.151-0.233-0.291-0.333-0.389   c-0.735-0.82-1.618-1.472-2.583-1.95C68.726,74.839,68.476,73.264,68.476,71.682z M80.471,124H75v-7.05c0-0.552-0.448-1-1-1   s-1,0.448-1,1V124h-4v-7c0-0.552-0.448-1-1-1s-1,0.448-1,1v7h-5.471c-0.345-0.775-0.529-1.583-0.529-2.415   c0-4.182,4.486-7.585,10-7.585c1.964,0,3.867,0.434,5.501,1.252c2.817,1.42,4.499,3.788,4.499,6.333   C81,122.417,80.816,123.225,80.471,124z M49,115.95c-0.552,0-1,0.448-1,1V124h-4v-7c0-0.552-0.448-1-1-1s-1,0.448-1,1v7h-5.471   c-0.345-0.775-0.529-1.583-0.529-2.415c0-4.182,4.486-7.585,10-7.585c1.964,0,3.867,0.434,5.501,1.252   c2.817,1.42,4.499,3.788,4.499,6.333c0,0.832-0.184,1.64-0.529,2.415H50v-7.05C50,116.398,49.552,115.95,49,115.95z    M54.791,115.049C54.919,114.04,55,113.02,55,112c0-13.233-10.766-24-24-24c-0.098,0-0.202,0.006-0.302,0.007   c2.291-4.214,4.658-8.034,7.099-11.511C42.298,89.641,51.94,99.701,64,103.728v10.088c-3.022,1.742-5,4.572-5,7.769   c0,0.827,0.143,1.632,0.396,2.415h-1.792c0.253-0.783,0.396-1.588,0.396-2.415C58,119.114,56.835,116.801,54.791,115.049z    M7.665,124c-2.557,0-4.649-1.995-4.665-4.5c0-5.238,4.935-9.5,11-9.5c1.485,0,2.908,0.263,4.252,0.752   c-0.739,1.942-1.472,3.915-2.195,5.955c-0.01,0.028-0.032,0.106-0.04,0.135c-0.564,2.198-0.087,4.492,1.311,6.293   c0.244,0.315,0.517,0.598,0.801,0.865H7.665z M23.172,124c-1.679,0-3.233-0.762-4.264-2.09c-1.015-1.31-1.363-2.975-0.966-4.534   c3.685-10.395,7.568-19.466,11.681-27.323C30.102,90.021,30.563,90,31,90c12.131,0,22,9.869,22,22c0,0.59-0.026,1.181-0.073,1.77   c-0.177-0.1-0.342-0.211-0.527-0.305C50.487,112.507,48.274,112,46,112c-6.617,0-12,4.3-12,9.585c0,0.827,0.143,1.632,0.396,2.415   H24.23H23.172z M85.529,124h-2.926c0.253-0.783,0.396-1.588,0.396-2.415c0-3.116-1.866-5.97-5-7.773v-7.884   c12.24-1.079,23.363-8.911,30.15-20.971c-0.529,3.074-1.24,6.088-2.141,8.973H106v0.027c-0.506,1.618-1.067,3.197-1.683,4.724   c-2.007,4.977-4.606,9.646-7.724,13.876C93.388,116.907,89.667,120.755,85.529,124z M99.375,112.101   c2.619-3.802,4.84-7.918,6.625-12.263v13.042C103.935,112.133,101.616,111.865,99.375,112.101z M111,121.621   c0,0.836-0.175,1.651-0.52,2.429H105v-7.1c0-0.552-0.448-1-1-1s-1,0.448-1,1v7.1h-4V117c0-0.552-0.448-1-1-1s-1,0.448-1,1v7.05   h-5.48c-0.307-0.693-0.471-1.415-0.506-2.154c2.398-2.277,4.621-4.771,6.656-7.452c2.901-0.783,6.243-0.488,8.83,0.814   C109.317,116.684,111,119.063,111,121.621z M120.642,68.157c-0.539-2.083-1.659-3.881-3.181-4.994   c-0.319-0.233-0.747-0.256-1.09-0.059c-0.343,0.198-0.537,0.58-0.494,0.974C115.959,64.849,116,65.641,116,66.5   c0,4.25-1.159,8.385-3.277,11.692c-0.331-0.358-0.694-0.724-0.991-0.954c-0.027-0.021-0.056-0.041-0.085-0.059   c-1.482-1.113-3.243-1.7-5.098-1.7c-0.501,0-0.996,0.055-1.483,0.142c0.296-1.298,0.457-2.616,0.457-3.94   c0-8.51-6.059-15.894-14.524-17.857C90.992,50.667,90.76,30,86,30s-4.992,20.667-5,23.825c-8.465,1.964-14.524,9.348-14.524,17.857   c0,1.324,0.159,2.642,0.456,3.94c-0.487-0.087-0.98-0.142-1.481-0.142c-1.854,0-3.615,0.587-5.098,1.7   c-0.029,0.018-0.058,0.038-0.085,0.059c-0.296,0.229-0.66,0.596-0.991,0.954C57.162,74.896,56,70.756,56,66.5   c0-0.859,0.041-1.651,0.124-2.423c0.042-0.394-0.151-0.775-0.494-0.974c-0.343-0.198-0.771-0.175-1.09,0.059   c-1.522,1.113-2.643,2.911-3.181,4.994C50.464,65.461,50,62.529,50,59.5c0-7.866,3.119-14.919,8.141-18.409   c0.2-0.139,0.342-0.346,0.4-0.582C61.152,29.917,72.608,22.132,85.77,22h0.45c13.172,0.132,24.628,7.917,27.24,18.509   c0.058,0.236,0.2,0.443,0.4,0.582C118.881,44.581,122,51.634,122,59.5C122,62.529,121.536,65.461,120.642,68.157z M117.322,39.447   c-0.264,0.305-0.595,0.684-0.965,1.06c-0.341-0.294-0.69-0.576-1.049-0.839c-1.741-6.56-6.592-12.08-13.078-15.591   C106.971,18.136,113.076,12,116.51,12c0.129,0,0.472,0,0.895,0.616c3.042,4.438,0.979,24.124,0.242,26.46   C117.553,39.18,117.444,39.305,117.322,39.447z M122.912,45.352c-0.151,0.164-0.335,0.376-0.548,0.623   c-0.295,0.341-0.656,0.755-1.057,1.185c-0.952-1.982-2.135-3.758-3.519-5.256c0.416-0.424,0.779-0.838,1.048-1.149   c0.152-0.176,0.278-0.322,0.374-0.422c1.101-1.137,3.139-21.37,0.443-27.73C118.741,10.452,117.44,10,116.51,10   c-4.947,0-12.133,8.129-16.104,13.156c-0.523-0.241-1.053-0.472-1.593-0.688C102.81,17.451,114.152,4,120.764,4   c0.249,0,1.008,0,1.813,1.228C127.268,12.381,123.835,42.743,122.912,45.352z"/><path d="M103,35c-6.065,0-11,4.935-11,11s4.935,11,11,11s11-4.935,11-11S109.065,35,103,35z M103,37c4.624,0,8.441,3.507,8.941,8   H94.059C94.559,40.507,98.376,37,103,37z M104.816,47c-0.414,1.161-1.514,2-2.816,2s-2.402-0.839-2.816-2H104.816z M103,55   c-4.624,0-8.441-3.507-8.941-8h3.042c0.465,2.279,2.484,4,4.899,4s4.434-1.721,4.899-4h5.042C111.441,51.493,107.624,55,103,55z"/></g></svg>