<svg xmlns="http://www.w3.org/2000/svg" xmlns:xlink="http://www.w3.org/1999/xlink" version="1.1" x="0px" y="0px" viewBox="0 0 32 40" enable-background="new 0 0 32 32" xml:space="preserve"><g><path d="M30.626,1.2197c-0.2373-0.1895-0.5488-0.2612-0.8428-0.1958l-18,4C11.3252,5.1255,11,5.5313,11,6v3v15.0007   C9.9452,23.3773,8.5524,23,7,23c-3.3643,0-6,1.7568-6,4s2.6357,4,6,4s6-1.7568,6-4V9.802l16-3.5555v13.7542   C27.9452,19.3773,26.5524,19,25,19c-3.3643,0-6,1.7568-6,4s2.6357,4,6,4s6-1.7568,6-4V5V2C31,1.6968,30.8623,1.4097,30.626,1.2197z   "/></g><text x="0" y="47" font-size="5px" font-weight="bold" font-family="'Helvetica Neue', Helvetica, Arial-Unicode, Arial, Sans-serif">Created by Icon Lauk</text><text x="0" y="52" fill="#000000" font-size="5px" font-weight="bold" font-family="'Helvetica Neue', Helvetica, Arial-Unicode, Arial, Sans-serif">from the Noun Project</text></svg>