<svg xmlns="http://www.w3.org/2000/svg" xmlns:xlink="http://www.w3.org/1999/xlink" version="1.1" x="0px" y="0px" viewBox="0 0 100 125" enable-background="new 0 0 100 100" xml:space="preserve"><path d="M71.556,51.798l-3.404-3.993c0.424-2.908,1.829-15.004-2.382-24.606c-1.331-3.034-3.187-5.939-5.518-8.634  c-1.717-1.985-3.658-3.826-5.771-5.47c-0.538-0.419-1.087-0.824-1.649-1.216c-0.217-0.151-0.435-0.3-0.656-0.446  c-0.079-0.052-0.157-0.107-0.235-0.163c-0.552-0.391-1.476-1.049-2.728-0.642c-0.679,0.219-1.22,0.631-1.654,0.962  c-0.125,0.095-0.248,0.19-0.373,0.276c-0.768,0.534-1.544,1.118-2.304,1.735c-2.156,1.748-4.11,3.688-5.809,5.767  c-2.015,2.465-3.644,5.099-4.842,7.83c-4.212,9.602-2.806,21.698-2.382,24.606l-3.404,3.993c-0.297,0.349-0.397,0.825-0.262,1.264  l6.341,20.705c0.148,0.485,0.558,0.844,1.058,0.929c0.498,0.083,1.006-0.12,1.306-0.528c0.027-0.037,2.347-3.155,5.156-4.39v0.393  c0,0.741,0.601,1.342,1.342,1.342h13.229c0.741,0,1.342-0.601,1.342-1.342v-0.393c2.81,1.235,5.13,4.353,5.157,4.39  c0.255,0.347,0.659,0.547,1.081,0.547c0.075,0,0.15-0.007,0.225-0.019c0.5-0.085,0.91-0.444,1.058-0.93l6.34-20.705  C71.953,52.623,71.853,52.146,71.556,51.798z M63.619,70.67c-1.548-1.576-4.029-3.609-6.818-4.002  c-0.062-0.009-0.125-0.013-0.187-0.013c-0.321,0-0.635,0.116-0.88,0.329c-0.294,0.255-0.462,0.625-0.462,1.013v0.831H44.728v-0.831  c0-0.388-0.168-0.758-0.462-1.013c-0.293-0.255-0.683-0.371-1.067-0.316c-2.789,0.392-5.271,2.426-6.818,4.002l-5.417-17.691  l3.327-3.901c0.259-0.304,0.37-0.707,0.301-1.1c-0.024-0.135-2.302-13.674,2.097-23.701c1.1-2.508,2.601-4.933,4.462-7.21  c1.583-1.937,3.408-3.747,5.422-5.38c0.709-0.575,1.431-1.119,2.146-1.615c0.156-0.108,0.311-0.226,0.467-0.346  c0.314-0.239,0.611-0.465,0.764-0.543c0.082,0.024,0.297,0.176,0.439,0.277c0.103,0.073,0.206,0.146,0.311,0.215  c0.203,0.134,0.403,0.271,0.601,0.408c0.521,0.363,1.031,0.74,1.532,1.13c1.974,1.537,3.787,3.255,5.389,5.107  c2.155,2.492,3.868,5.17,5.091,7.957c4.39,10.009,2.12,23.565,2.097,23.701c-0.068,0.393,0.042,0.796,0.301,1.099l3.327,3.901  L63.619,70.67z"/><path d="M50.04,77.097c-0.741,0-1.342,0.601-1.342,1.342v13.719c0,0.741,0.601,1.342,1.342,1.342s1.342-0.601,1.342-1.342V78.439  C51.382,77.698,50.782,77.097,50.04,77.097z"/><path d="M57.346,77.097c-0.741,0-1.342,0.601-1.342,1.342v5.028c0,0.741,0.601,1.342,1.342,1.342c0.741,0,1.342-0.601,1.342-1.342  v-5.028C58.688,77.698,58.087,77.097,57.346,77.097z"/><path d="M42.735,77.097c-0.741,0-1.342,0.601-1.342,1.342v6.371c0,0.741,0.601,1.342,1.342,1.342c0.741,0,1.342-0.601,1.342-1.342  v-6.371C44.077,77.698,43.476,77.097,42.735,77.097z"/><path d="M50,24.228c-4.391,0-7.963,3.572-7.963,7.963s3.572,7.964,7.963,7.964s7.963-3.573,7.963-7.964S54.391,24.228,50,24.228z   M50,37.471c-2.911,0-5.28-2.369-5.28-5.28c0-2.911,2.368-5.28,5.28-5.28c2.911,0,5.28,2.368,5.28,5.28  C55.28,35.103,52.911,37.471,50,37.471z"/><path d="M41.601,41.545c0.172-0.72-0.271-1.443-0.991-1.617c-0.717-0.17-1.445,0.27-1.619,0.991  c-0.09,0.373-2.139,9.266,2.972,20.97c0.22,0.505,0.713,0.805,1.23,0.805c0.179,0,0.361-0.036,0.536-0.113  c0.679-0.297,0.989-1.088,0.693-1.766C39.703,50.008,41.573,41.662,41.601,41.545z"/></svg>