<svg xmlns="http://www.w3.org/2000/svg" xmlns:xlink="http://www.w3.org/1999/xlink" version="1.1" x="0px" y="0px" viewBox="0 0 100 125" enable-background="new 0 0 100 100" xml:space="preserve"><g><g><path fill-rule="evenodd" clip-rule="evenodd" d="M12.868,15.125C8.523,15.125,5,18.648,5,22.993c0,4.345,3.523,7.868,7.868,7.868    c4.345,0,7.868-3.522,7.868-7.868C20.736,18.648,17.213,15.125,12.868,15.125z M12.868,28.575c-3.083,0-5.582-2.499-5.582-5.582    c0-3.083,2.499-5.582,5.582-5.582c3.083,0,5.582,2.499,5.582,5.582C18.45,26.076,15.951,28.575,12.868,28.575z M27.488,21.871    v2.26H95v-2.26H27.488z M27.488,51.138H95v-2.26H27.488V51.138z M12.868,42.132C8.523,42.132,5,45.655,5,50    c0,4.346,3.523,7.868,7.868,7.868c4.345,0,7.868-3.522,7.868-7.868C20.736,45.655,17.213,42.132,12.868,42.132z M12.868,55.582    c-3.083,0-5.582-2.499-5.582-5.582c0-3.083,2.499-5.582,5.582-5.582c3.083,0,5.582,2.499,5.582,5.582    C18.45,53.083,15.951,55.582,12.868,55.582z M27.488,78.145H95v-2.26H27.488V78.145z M12.868,69.139    C8.523,69.139,5,72.661,5,77.007c0,4.345,3.523,7.868,7.868,7.868c4.345,0,7.868-3.522,7.868-7.868    C20.736,72.661,17.213,69.139,12.868,69.139z M12.868,82.589c-3.083,0-5.582-2.499-5.582-5.582c0-3.083,2.499-5.582,5.582-5.582    c3.083,0,5.582,2.499,5.582,5.582C18.45,80.09,15.951,82.589,12.868,82.589z"/></g></g><text x="0" y="115" fill="#000000" font-size="5px" font-weight="bold" font-family="'Helvetica Neue', Helvetica, Arial-Unicode, Arial, Sans-serif">Created by Alex Bickov</text><text x="0" y="120" fill="#000000" font-size="5px" font-weight="bold" font-family="'Helvetica Neue', Helvetica, Arial-Unicode, Arial, Sans-serif">from the Noun Project</text></svg>